# xmcd CD database file
#
# Track frame offsets:
#	150
#	14030
#	24636
#	35971
#	50196
#	64034
#	78376
#	93592
#	105352
#	117303
#
# Disc length: 1762 seconds
#
# Revision: 0
# Processed by: cddbd v1.5.1PL0 Copyright (c) Steve Scherf et al.
# Submitted via: CDex 1.51
#
DISCID=8906e00a
DTITLE=The Dixon's - C.D And Me
DYEAR=1900
DGENRE=Country
TTITLE0=It Ain't Right
TTITLE1=Winter Time In My Heart
TTITLE2=Highway Man
TTITLE3=Right Here In My Heart
TTITLE4=There She Goes
TTITLE5=Without You
TTITLE6=Tina
TTITLE7=Are You Still In Love With Me
TTITLE8=Working My Way Back
TTITLE9=Can't Change Time
EXTD=
EXTT0=
EXTT1=
EXTT2=
EXTT3=
EXTT4=
EXTT5=
EXTT6=
EXTT7=
EXTT8=
EXTT9=
PLAYORDER=
